HIERARCHY
ROOT hip
{
  OFFSET 0 0 0
  CHANNELS 6 Xposition Yposition Zposition Zrotation Yrotation Xrotation
  JOINT abdomen
  {
    OFFSET 0 20.6881 -0.73152
    CHANNELS 3 Zrotation Xrotation Yrotation
    JOINT chest
    {
      OFFSET 0 11.7043 -0.48768
      CHANNELS 3 Zrotation Xrotation Yrotation
      JOINT neck
      {
        OFFSET 0 22.1894 -2.19456
        CHANNELS 3 Zrotation Xrotation Yrotation
        JOINT head
        {
          OFFSET -0.24384 7.07133 1.2192
          CHANNELS 3 Zrotation Xrotation Yrotation
          JOINT leftEye
          {
            OFFSET 4.14528 8.04674 8.04672
            CHANNELS 3 Zrotation Xrotation Yrotation
            End Site
            {
              OFFSET 1 0 0
            }
          }
          JOINT rightEye
          {
            OFFSET -3.6576 8.04674 8.04672
            CHANNELS 3 Zrotation Xrotation Yrotation
            End Site
            {
              OFFSET 1 0 0
            }
          }
        }
      }
      JOINT rCollar
      {
        OFFSET -2.68224 19.2634 -4.8768
        CHANNELS 3 Zrotation Xrotation Yrotation
        JOINT rShldr
        {
          OFFSET -8.77824 -1.95073 1.46304
          CHANNELS 3 Zrotation Xrotation Yrotation
          JOINT rForeArm
          {
            OFFSET -28.1742 -1.7115 0.48768
            CHANNELS 3 Zrotation Xrotation Yrotation
            JOINT rHand
            {
              OFFSET -22.5879 0.773209 7.07136
              CHANNELS 3 Zrotation Xrotation Yrotation
              JOINT rThumb1
              {
                OFFSET -1.2192 -0.487915 3.41376
                CHANNELS 3 Zrotation Xrotation Yrotation
                JOINT rThumb2
                {
                  OFFSET -3.37035 -0.52449 3.41376
                  CHANNELS 3 Zrotation Xrotation Yrotation
                  End Site
                  {
                    OFFSET -1.78271 -1.18214 1.43049
                  }
                }
              }
              JOINT rIndex1
              {
                OFFSET -7.75947 0.938293 5.60832
                CHANNELS 3 Zrotation Xrotation Yrotation
                JOINT rIndex2
                {
                  OFFSET -2.54057 -0.884171 1.56538
                  CHANNELS 3 Zrotation Xrotation Yrotation
                  End Site
                  {
                    OFFSET -1.62519 -0.234802 1.16502
                  }
                }
              }
              JOINT rMid1
              {
                OFFSET -8.24714 1.18213 3.41376
                CHANNELS 3 Zrotation Xrotation Yrotation
                JOINT rMid2
                {
                  OFFSET -3.10165 -0.590103 1.0647
                  CHANNELS 3 Zrotation Xrotation Yrotation
                  End Site
                  {
                    OFFSET -2.48547 -0.328903 0.83742
                  }
                }
              }
              JOINT rRing1
              {
                OFFSET -8.82822 0.546677 1.51678
                CHANNELS 3 Zrotation Xrotation Yrotation
                JOINT rRing2
                {
                  OFFSET -2.60934 -0.819778 -0.0198488
                  CHANNELS 3 Zrotation Xrotation Yrotation
                  End Site
                  {
                    OFFSET -2.33842 -0.294052 0.168128
                  }
                }
              }
              JOINT rPinky1
              {
                OFFSET -8.27202 -0.0477905 -0.4584
                CHANNELS 3 Zrotation Xrotation Yrotation
                JOINT rPinky2
                {
                  OFFSET -1.82734 -0.647385 -0.700984
                  CHANNELS 3 Zrotation Xrotation Yrotation
                  End Site
                  {
                    OFFSET -1.69225 -0.51767 -0.607171
                  }
                }
              }
            }
          }
        }
      }
      JOINT lCollar
      {
        OFFSET 2.68224 19.2634 -4.8768
        CHANNELS 3 Zrotation Xrotation Yrotation
        JOINT lShldr
        {
          OFFSET 8.77824 -1.95073 1.46304
          CHANNELS 3 Zrotation Xrotation Yrotation
          JOINT lForeArm
          {
            OFFSET 28.1742 -1.7115 0.48768
            CHANNELS 3 Zrotation Xrotation Yrotation
            JOINT lHand
            {
              OFFSET 22.5879 0.773209 7.07136
              CHANNELS 3 Zrotation Xrotation Yrotation
              JOINT lThumb1
              {
                OFFSET 1.2192 -0.487915 3.41376
                CHANNELS 3 Zrotation Xrotation Yrotation
                JOINT lThumb2
                {
                  OFFSET 3.37035 -0.52449 3.41376
                  CHANNELS 3 Zrotation Xrotation Yrotation
                  End Site
                  {
                    OFFSET 1.78271 -1.18214 1.43049
                  }
                }
              }
              JOINT lIndex1
              {
                OFFSET 7.75947 0.938293 5.60832
                CHANNELS 3 Zrotation Xrotation Yrotation
                JOINT lIndex2
                {
                  OFFSET 2.54057 -0.884171 1.56538
                  CHANNELS 3 Zrotation Xrotation Yrotation
                  End Site
                  {
                    OFFSET 1.62519 -0.234802 1.16502
                  }
                }
              }
              JOINT lMid1
              {
                OFFSET 8.24714 1.18213 3.41376
                CHANNELS 3 Zrotation Xrotation Yrotation
                JOINT lMid2
                {
                  OFFSET 3.10165 -0.590103 1.0647
                  CHANNELS 3 Zrotation Xrotation Yrotation
                  End Site
                  {
                    OFFSET 2.48547 -0.328903 0.83742
                  }
                }
              }
              JOINT lRing1
              {
                OFFSET 8.82822 0.546677 1.51678
                CHANNELS 3 Zrotation Xrotation Yrotation
                JOINT lRing2
                {
                  OFFSET 2.60934 -0.819778 -0.0198488
                  CHANNELS 3 Zrotation Xrotation Yrotation
                  End Site
                  {
                    OFFSET 2.33842 -0.294052 0.168128
                  }
                }
              }
              JOINT lPinky1
              {
                OFFSET 8.27202 -0.0477905 -0.4584
                CHANNELS 3 Zrotation Xrotation Yrotation
                JOINT lPinky2
                {
                  OFFSET 1.82734 -0.647385 -0.700984
                  CHANNELS 3 Zrotation Xrotation Yrotation
                  End Site
                  {
                    OFFSET 1.69225 -0.51767 -0.607171
                  }
                }
              }
            }
          }
        }
      }
    }
  }
  JOINT rButtock
  {
    OFFSET -8.77824 4.35084 1.2192
    CHANNELS 3 Zrotation Xrotation Yrotation
    JOINT rThigh
    {
      OFFSET 0 -1.70687 -2.19456
      CHANNELS 3 Zrotation Xrotation Yrotation
      JOINT rShin
      {
        OFFSET 0 -36.8199 0.73152
        CHANNELS 3 Zrotation Xrotation Yrotation
        JOINT rFoot
        {
          OFFSET 0.73152 -45.1104 -5.12064
          CHANNELS 3 Zrotation Xrotation Yrotation
          End Site
          {
            OFFSET -1.1221 -3.69964 12.103
          }
        }
      }
    }
  }
  JOINT lButtock
  {
    OFFSET 8.77824 4.35084 1.2192
    CHANNELS 3 Zrotation Xrotation Yrotation
    JOINT lThigh
    {
      OFFSET 0 -1.70687 -2.19456
      CHANNELS 3 Zrotation Xrotation Yrotation
      JOINT lShin
      {
        OFFSET 0 -36.8199 0.73152
        CHANNELS 3 Zrotation Xrotation Yrotation
        JOINT lFoot
        {
          OFFSET -0.73152 -45.1104 -5.12064
          CHANNELS 3 Zrotation Xrotation Yrotation
          End Site
          {
            OFFSET 1.1221 -3.69964 12.103
          }
        }
      }
    }
  }
}
MOTION
Frames:	5
Frame Time:	0.00833333
-4.84623 84.2564 35.1955 0.0 0.0 0.0 -1.24153 -0.00398111 -0.0340793 -0.342498 -0.00249241 -0.059328 4.50194e-14 -7.95139e-16 -4.9696e-17 1.34674e-13 3.18055e-15 -1.63066e-16 -0.0 0.0 0.0 -0.0 0.0 0.0 2.26113e-14 2.95071e-17 1.49089e-16 4.74797e-13 7.95139e-16 1.98785e-15 8.11996e-12 -2.41325e-12 -8.5875e-14 9.30101e-11 2.54159e-12 2.54444e-14 2.19379e-10 2.7489e-13 -1.33583e-13 3.78852e-10 4.70722e-13 -2.40927e-13 2.19386e-10 2.76708e-13 -1.39944e-13 7.73091 5.47488 0.417314 2.1938e-10 2.75416e-13 -1.30403e-13 2.90554 0.965183 0.102902 2.19384e-10 2.7482e-13 -1.31198e-13 10.2786 0.731801 0.0259123 2.19378e-10 2.7472e-13 -1.24042e-13 2.22167 -0.733487 -0.20892 2.25143e-14 2.95071e-17 -1.49089e-16 4.69316e-13 9.00743e-16 1.98785e-16 8.13442e-12 2.44942e-12 -8.90555e-14 9.29859e-11 -2.32454e-12 3.49861e-14 2.1936e-10 2.6497e-13 -1.33583e-13 3.78833e-10 4.58e-13 -2.36951e-13 2.19355e-10 2.65179e-13 -1.27222e-13 -7.73091 5.47488 -0.417314 2.19358e-10 2.65477e-13 -1.33583e-13 -2.90554 0.965183 -0.102902 2.19352e-10 2.65079e-13 -1.35969e-13 -10.2786 0.731801 -0.0259123 2.19367e-10 2.66371e-13 -1.39944e-13 -2.22167 -0.733487 0.20892 -2.03217e-16 0.0 -3.88251e-19 -0.45361 -1.92099 -0.00953097 -0.00915729 -2.07857 -0.075567 -0.487696 3.99699 0.136689 2.03217e-16 0.0 3.88251e-19 -1.43705 -5.97118 0.129651 -0.00126579 5.25801 -0.045428 0.507582 0.71072 -0.0722456
-6.78526 84.6013 35.3851 -4.3415 -2.9909 -1.0571 -0.635641 0.52388 0.401227 -0.467163 -0.745068 0.0297396 -0.211514 1.20699 -0.277518 0.711858 0.14341 -0.513026 -0.0 0.0 0.0 -0.0 0.0 0.0 1.01115e-13 5.12682e-15 9.3918e-15 23.1811 7.04596 -3.72178 -6.22935 -3.39225 9.04213 0.0477706 4.85142 0.673024 -3.90288e-10 9.26509e-10 -6.07369e-10 -6.82632e-10 1.60297e-09 -1.04095e-09 -3.90281e-10 9.26511e-10 -6.07373e-10 7.73091 5.47488 0.417314 -3.90288e-10 9.2651e-10 -6.07369e-10 2.90554 0.965183 0.102902 -3.90283e-10 9.2651e-10 -6.07368e-10 10.2786 0.731801 0.0259123 -3.90288e-10 9.2651e-10 -6.0736e-10 2.22167 -0.733487 -0.20892 1.00972e-13 5.12806e-15 9.0878e-15 -23.9252 5.59924 3.00907 6.00086 -3.20915 -8.78949 -0.0142593 2.64934 -0.370904 -5.15323e-10 -7.9137e-10 -4.90233e-10 -8.94447e-10 -1.36862e-09 -8.41311e-10 -5.1533e-10 -7.9137e-10 -4.90228e-10 -7.73091 5.47488 -0.417314 -5.15327e-10 -7.91371e-10 -4.90233e-10 -2.90554 0.965183 -0.102902 -5.15332e-10 -7.91371e-10 -4.90237e-10 -10.2786 0.731801 -0.0259123 -5.15317e-10 -7.91369e-10 -4.9024e-10 -2.22167 -0.733487 0.20892 -2.03217e-16 0.0 -3.88251e-19 -6.38556 -1.9482 -0.00687183 -0.00329656 -2.07941 -0.0237429 -0.443702 4.01408 0.130507 2.03217e-16 0.0 3.88251e-19 0.625808 -3.41637 -2.01922 -0.0145891 5.21503 -0.0891801 -0.164923 -2.9684 5.8276
-6.78239 84.6021 35.3885 -4.3266 -2.9999 -1.0716 -0.00452173 1.08162 0.862551 -0.596344 -1.53031 0.124219 -0.423902 2.48328 -0.571737 1.4704 0.295214 -1.05597 -0.0 0.0 0.0 -0.0 0.0 0.0 1.87492e-13 1.0646e-14 2.09531e-14 48.709 14.3919 -7.84677 -11.6638 -6.69608 18.6999 -0.0273853 9.97855 1.40084 -1.06746e-09 1.95546e-09 -1.27442e-09 -1.86157e-09 3.38308e-09 -2.18399e-09 -1.06745e-09 1.95547e-09 -1.27442e-09 7.73091 5.47488 0.417314 -1.06746e-09 1.95547e-09 -1.27442e-09 2.90554 0.965183 0.102902 -1.06745e-09 1.95547e-09 -1.27442e-09 10.2786 0.731801 0.0259123 -1.06745e-09 1.95547e-09 -1.27441e-09 2.22167 -0.733487 -0.20892 1.87298e-13 1.06486e-14 2.06394e-14 -49.8668 11.465 6.28674 11.2843 -6.34796 -18.1652 0.00811213 5.44799 -0.765406 -1.32101e-09 -1.66494e-09 -1.02999e-09 -2.29079e-09 -2.87938e-09 -1.76764e-09 -1.32102e-09 -1.66494e-09 -1.02999e-09 -7.73091 5.47488 -0.417314 -1.32102e-09 -1.66494e-09 -1.02999e-09 -2.90554 0.965183 -0.102902 -1.32102e-09 -1.66494e-09 -1.03e-09 -10.2786 0.731801 -0.0259123 -1.32101e-09 -1.66494e-09 -1.03e-09 -2.22167 -0.733487 0.20892 -2.03217e-16 0.0 -3.88251e-19 -12.6564 -1.97698 -0.0040611 0.00290075 -2.08029 0.031043 -0.397186 4.03215 0.123971 2.03217e-16 0.0 3.88251e-19 3.01423 -0.717426 -4.28263 -0.0287127 5.16906 -0.135396 -0.05289 -6.73668 12.1343
-6.78252 84.6031 35.3911 -4.335 -3.0113 -1.0824 0.552064 1.57925 1.27227 -0.709563 -2.23021 0.208025 -0.599405 3.62064 -0.834034 2.14328 0.430092 -1.53912 -0.0 0.0 0.0 -0.0 0.0 0.0 2.58123e-13 1.53215e-14 2.78772e-14 72.4311 20.7687 -11.8618 -15.5754 -9.16462 27.4579 -0.208168 14.5461 2.07849 -1.60962e-09 2.77898e-09 -1.82184e-09 -2.8056e-09 4.80796e-09 -3.12237e-09 -1.60962e-09 2.77898e-09 -1.82184e-09 7.73091 5.47488 0.417314 -1.60962e-09 2.77898e-09 -1.82185e-09 2.90554 0.965183 0.102902 -1.60962e-09 2.77898e-09 -1.82184e-09 10.2786 0.731801 0.0259123 -1.60962e-09 2.77898e-09 -1.82183e-09 2.22167 -0.733487 -0.20892 2.57888e-13 1.53252e-14 2.75616e-14 -73.5968 16.6084 9.37869 15.1363 -8.72286 -26.659 0.0609675 7.94668 -1.1223 -1.98469e-09 -2.37464e-09 -1.47043e-09 -3.44101e-09 -4.10677e-09 -2.52346e-09 -1.9847e-09 -2.37464e-09 -1.47043e-09 -7.73091 5.47488 -0.417314 -1.9847e-09 -2.37464e-09 -1.47043e-09 -2.90554 0.965183 -0.102902 -1.9847e-09 -2.37464e-09 -1.47044e-09 -10.2786 0.731801 -0.0259123 -1.98468e-09 -2.37464e-09 -1.47044e-09 -2.22167 -0.733487 0.20892 -2.03217e-16 0.0 -3.88251e-19 -18.2494 -2.00264 -0.0015533 0.00842944 -2.08108 0.0799057 -0.355702 4.04826 0.118142 2.03217e-16 0.0 3.88251e-19 5.32494 1.67672 -6.3075 -0.0414334 5.12907 -0.176667 0.751954 -9.88208 17.8777
-6.78161 84.6044 35.3952 -4.3346 -2.9953 -1.0979 0.939377 1.92692 1.55257 -0.787814 -2.71674 0.264998 -0.707619 4.41101 -1.01511 2.59654 0.522792 -1.87275 -0.0 0.0 0.0 -0.0 0.0 0.0 2.89392e-13 1.78875e-14 2.32081e-14 89.5505 25.0732 -14.9398 -17.8347 -10.5101 33.6504 -0.401384 17.7224 2.57418 -1.81428e-09 3.08888e-09 -2.0702e-09 -3.16237e-09 5.34477e-09 -3.54907e-09 -1.81428e-09 3.08888e-09 -2.0702e-09 7.73091 5.47488 0.417314 -1.81429e-09 3.08888e-09 -2.07021e-09 2.90554 0.965183 0.102902 -1.81428e-09 3.08888e-09 -2.0702e-09 10.2786 0.731801 0.0259123 -1.81428e-09 3.08889e-09 -2.07019e-09 2.22167 -0.733487 -0.20892 2.8914e-13 1.78918e-14 2.29099e-14 -90.4924 20.1256 11.6722 17.3927 -10.0483 -32.6716 0.116729 9.69677 -1.37609 -2.29334e-09 -2.67465e-09 -1.66256e-09 -3.97591e-09 -4.62573e-09 -2.85301e-09 -2.29335e-09 -2.67465e-09 -1.66256e-09 -7.73091 5.47488 -0.417314 -2.29335e-09 -2.67466e-09 -1.66256e-09 -2.90554 0.965183 -0.102902 -2.29335e-09 -2.67466e-09 -1.66257e-09 -10.2786 0.731801 -0.0259123 -2.29333e-09 -2.67465e-09 -1.66257e-09 -2.22167 -0.733487 0.20892 -2.03217e-16 0.0 -3.88251e-19 -22.1477 -2.0205 0.000196981 0.0122834 -2.08162 0.11396 -0.326803 4.05947 0.114082 2.03217e-16 0.0 3.88251e-19 7.03797 3.33107 -7.73002 -0.0505036 5.10399 -0.205588 1.69653 -11.9003 21.9666
